<?xml version="1.0" encoding="UTF-8"?>
<svg version="1.1" xmlns="http://www.w3.org/2000/svg" width="64" height="64">
<path d="M0 0 C2.88437779 1.29299694 4.87219421 2.65941363 7 5 C6.566875 5.8353125 6.566875 5.8353125 6.125 6.6875 C3.70247916 11.62471609 3.70247916 11.62471609 3 17 C4.64169528 19.02054804 6.30911778 21.02043058 8 23 C9.91700218 28.75100653 10.26232894 35.84661457 7.98828125 41.52734375 C5.99195137 44.7466505 3.71817719 47.36950595 1 50 C3.31 50.66 5.62 51.32 8 52 C8.042721 53.66611905 8.04063832 55.33382885 8 57 C6.2717886 58.7282114 4.05749626 58.12817712 1.75416565 58.13894653 C1.02189255 58.1369223 0.28961945 58.13489807 -0.46484375 58.1328125 C-1.21335098 58.13376923 -1.96185822 58.13472595 -2.73304749 58.13571167 C-4.31934696 58.13639346 -5.90564921 58.13453922 -7.49194336 58.13037109 C-9.92372909 58.12503024 -12.35532949 58.1303122 -14.78710938 58.13671875 C-16.32552124 58.13605782 -17.86393299 58.13477635 -19.40234375 58.1328125 C-20.13259262 58.13483673 -20.86284149 58.13686096 -21.61521912 58.13894653 C-26.77008664 58.11495668 -26.77008664 58.11495668 -29 57 C-29 55.35 -29 53.7 -29 52 C-26.69 51.34 -24.38 50.68 -22 50 C-24.77277707 45.68601684 -24.77277707 45.68601684 -29.11328125 43.37890625 C-31.06660622 43.15338916 -33.03482858 43.06661598 -35 43 C-35 40.69 -35 38.38 -35 36 C-31.52085059 35.97112186 -28.04173169 35.95324313 -24.5625 35.9375 C-23.07266602 35.92493164 -23.07266602 35.92493164 -21.55273438 35.91210938 C-20.60849609 35.90888672 -19.66425781 35.90566406 -18.69140625 35.90234375 C-17.81685791 35.89710693 -16.94230957 35.89187012 -16.04125977 35.88647461 C-14 36 -14 36 -13 37 C-12.95936168 38.66617115 -12.957279 40.33388095 -13 42 C-8.730679 42.41856088 -6.6696295 42.48038638 -3.125 39.9375 C-0.58266198 36.42309156 0 34.32499429 0 30 C-1.26867313 26.92847558 -2.01450879 25.44795055 -5.0625 24.0625 C-5.701875 24.041875 -6.34125 24.02125 -7 24 C-7.66 24.66 -8.32 25.32 -9 26 C-10.175625 26.433125 -10.175625 26.433125 -11.375 26.875 C-14.13287346 27.84330334 -14.13287346 27.84330334 -16 30.1875 C-18 32 -18 32 -20.625 31.875 C-23 31 -23 31 -25 29 C-24.75962209 24.55300869 -22.81306842 22.30949225 -20 19 C-19.57203125 18.24074219 -19.1440625 17.48148438 -18.703125 16.69921875 C-16.69441547 13.51569057 -14.28006822 10.94962857 -11.625 8.3125 C-10.92117187 7.58450195 -10.92117187 7.58450195 -10.203125 6.84179688 C-7.32833009 3.96303125 -4.85499616 2.27364714 -1 1 C-0.67 0.67 -0.34 0.34 0 0 Z M1 3 C1 4.32 1 5.64 1 7 C1.99 6.67 2.98 6.34 4 6 C3.01 5.01 2.02 4.02 1 3 Z M-7.8203125 8.625 C-8.92696886 9.74498957 -10.0283192 10.87024066 -11.125 12 C-11.96998047 12.85851562 -11.96998047 12.85851562 -12.83203125 13.734375 C-14.22586268 15.15183069 -15.61351636 16.57535626 -17 18 C-14.525 20.97 -14.525 20.97 -12 24 C-11.01 23.34 -10.02 22.68 -9 22 C-8.59270772 19.67843403 -8.25561323 17.3431213 -8 15 C-6.03177114 13.03177114 -2.65191291 13.33751619 0 13 C0.41188103 9.15328527 0.41188103 9.15328527 -1.375 7.25 C-4.43659077 4.89493018 -4.99749301 5.99766662 -7.8203125 8.625 Z M-5 15 C-5.66 15.66 -6.32 16.32 -7 17 C-6.6814823 19.10820797 -6.6814823 19.10820797 -6 21 C-4.35 20.67 -2.7 20.34 -1 20 C-1.26676204 18.01508358 -1.26676204 18.01508358 -2 16 C-2.99 15.67 -3.98 15.34 -5 15 Z M1 20 C0.29805007 21.80252869 0.29805007 21.80252869 0 24 C0.31453125 24.61617187 0.6290625 25.23234375 0.953125 25.8671875 C2.72496411 29.47697911 2.5660027 33.07207765 2 37 C0.10885568 40.52144115 -2.0316846 43.32851614 -5 46 C-3.26424351 46.87436418 -3.26424351 46.87436418 -1 47 C3.67011703 44.26627296 5.36578711 41.07466107 7 36 C7.74493846 30.14691206 6.22591225 25.82709497 3 21 C2.34 20.67 1.68 20.34 1 20 Z M-18 22 C-19.32 23.32 -20.64 24.64 -22 26 C-21.67 26.99 -21.34 27.98 -21 29 C-17.83884224 27.63016497 -17.0072908 27.0109362 -15 24 C-15.99 23.34 -16.98 22.68 -18 22 Z M-33 39 C-33 39.33 -33 39.66 -33 40 C-27.06 40 -21.12 40 -15 40 C-15 39.67 -15 39.34 -15 39 C-20.94 39 -26.88 39 -33 39 Z M-24 43 C-22.27144074 45.14567913 -22.27144074 45.14567913 -20 47 C-17.78141747 46.86358623 -17.78141747 46.86358623 -16 46 C-17.18523997 44.39585785 -17.18523997 44.39585785 -19 43 C-21.62570704 42.74930087 -21.62570704 42.74930087 -24 43 Z M-18 50 C-18 50.33 -18 50.66 -18 51 C-13.05 51 -8.1 51 -3 51 C-7.24487378 46.32773505 -7.24487378 46.32773505 -9.9375 44.875 C-13.5379842 45.09321116 -15.45580337 47.57144867 -18 50 Z M-27 54 C-27 54.33 -27 54.66 -27 55 C-16.11 55 -5.22 55 6 55 C6 54.67 6 54.34 6 54 C-4.89 54 -15.78 54 -27 54 Z " fill="#FFFFFF" transform="translate(45,3)"/>
</svg>
